<svg xmlns="http://www.w3.org/2000/svg" width="148" height="133" fill="none" viewBox="0 0 148 133"><path fill="#FDB300" d="M32.0509 4.37673L73.4499 0L114.849 4.37673L146.9 47.4022L73.4499 132.934L0 47.4022L32.0509 4.37673Z"/><path fill="#EA6C00" d="M29.7509 47.4021L73.45 132.934L0 47.4021H29.7509Z"/><path fill="#EA6C00" d="M117.149 47.4021L73.4498 132.934L146.9 47.4021H117.149Z"/><path fill="#FDAD00" d="M29.7509 47.4021H117.149L73.45 132.934L29.7509 47.4021Z"/><path fill="#FDD231" d="M73.45 0L32.0508 4.37667L29.7509 47.4022L73.45 0Z"/><path fill="#FDD231" d="M73.4497 0L114.849 4.37667L117.149 47.4022L73.4497 0Z"/><path fill="#FDAD00" d="M146.9 47.4022L114.849 4.37671L117.149 47.4022H146.9Z"/><path fill="#FDAD00" d="M0 47.4022L32.0508 4.37671L29.7509 47.4022H0Z"/><path fill="#FEEEB7" d="M73.45 0L29.7509 47.4022H117.149L73.45 0Z"/></svg>